# xmcd
#
# Track frame offsets:
#	150
#	11295
#	26295
#	42070
#	55277
#	73722
#	92852
#	111445
#	126760
#	142010
#	146585
#
# Disc length: 2101
#
# Revision: 1
# Processed by: cddbd v1.5.1PL0 Copyright (c) Steve Scherf et al.
# Submitted via: uFREEDB 1.6.0
# Normalized: r0:DSETVAR2,TDELIM( - )
#
DISCID=9708330b
DTITLE=Various Artist - Macountry
DYEAR=1900
DGENRE=Country
TTITLE0=Confederate Railroad - When And Where
TTITLE1=Lorrie Morgan - I Don't Know My Own Strength
TTITLE2=George Ducas - Hello Cruel World
TTITLE3=Dallas County Line - Honk If You Love To Honky Ton
TTITLE4=Rhett Akins - That Ain't My Truck
TTITLE5=Debra Burns Kelso - Someone To Come Home To
TTITLE6=Neal McCoy - They're Palyin' Our Song
TTITLE7=Dallas County Line - Honk If You Love To Honky Ton
TTITLE8=Bryan White - Someone Else's Star
TTITLE9=Wade Jasson - Macountry Classic Intro
TTITLE10=Conway Twitty - Hello Darlin'
EXTD=
EXTT0=
EXTT1=
EXTT2=
EXTT3=
EXTT4=
EXTT5=
EXTT6=
EXTT7=
EXTT8=
EXTT9=
EXTT10=
PLAYORDER=
